<svg width="160" height="159" viewBox="0 0 160 159" fill="none" xmlns="http://www.w3.org/2000/svg">
<g clip-path="url(#clip0_330_29)">
<path d="M0 0H160V159H0V0Z" fill="#0074A7"/>
<path d="M43.064 107C42.36 107 41.784 106.776 41.336 106.328C40.888 105.88 40.664 105.304 40.664 104.6V41.2401C40.664 40.5361 40.888 39.9601 41.336 39.5121C41.784 39.0641 42.36 38.8401 43.064 38.8401H55.352C56.056 38.8401 56.632 39.0641 57.08 39.5121C57.528 39.9601 57.752 40.5361 57.752 41.2401V62.6481C59.48 60.6641 61.592 59.0961 64.088 57.9441C66.648 56.7281 69.592 56.1201 72.92 56.1201C76.632 56.1201 79.928 56.9521 82.808 58.6161C85.752 60.2801 88.056 62.7441 89.72 66.0081C91.384 69.2081 92.216 73.1441 92.216 77.8161V104.6C92.216 105.304 91.992 105.88 91.544 106.328C91.096 106.776 90.52 107 89.816 107H77.432C76.792 107 76.216 106.776 75.704 106.328C75.256 105.88 75.032 105.304 75.032 104.6V78.3921C75.032 75.3841 74.296 73.0801 72.824 71.4801C71.416 69.8161 69.304 68.9841 66.488 68.9841C63.864 68.9841 61.752 69.8161 60.152 71.4801C58.552 73.0801 57.752 75.3841 57.752 78.3921V104.6C57.752 105.304 57.528 105.88 57.08 106.328C56.632 106.776 56.056 107 55.352 107H43.064Z" fill="#CCFFFB"/>
<path d="M79.048 107C78.408 107 77.832 106.776 77.32 106.328C76.872 105.88 76.648 105.304 76.648 104.6V97.1121C76.648 96.4081 76.776 95.8001 77.032 95.2881C77.352 94.7761 77.736 94.2961 78.184 93.8481L100.648 69.4641H79.912C79.208 69.4641 78.6 69.2401 78.088 68.7921C77.64 68.3441 77.416 67.7681 77.416 67.0641V59.4801C77.416 58.7761 77.64 58.2001 78.088 57.7521C78.6 57.3041 79.208 57.0801 79.912 57.0801H118.504C119.144 57.0801 119.688 57.3041 120.136 57.7521C120.648 58.2001 120.904 58.7761 120.904 59.4801V67.6401C120.904 68.2161 120.776 68.7281 120.52 69.1761C120.264 69.6241 119.944 70.0721 119.56 70.5201L97.672 94.6161H120.424C121.128 94.6161 121.704 94.8401 122.152 95.2881C122.6 95.7361 122.824 96.3121 122.824 97.0161V104.6C122.824 105.304 122.6 105.88 122.152 106.328C121.704 106.776 121.128 107 120.424 107H79.048Z" fill="white"/>
</g>
<defs>
<clipPath id="clip0_330_29">
<rect width="160" height="159" fill="white"/>
</clipPath>
</defs>
</svg>
