<svg width="478" height="159" viewBox="0 0 478 159" fill="none" xmlns="http://www.w3.org/2000/svg">
<g clip-path="url(#clip0_332_36)">
<path d="M0 0H478V159H0V0Z" fill="#0074A7"/>
<path d="M408.32 107.96C400.96 107.96 395.104 105.912 390.752 101.816C386.464 97.7201 384.192 91.7681 383.936 83.9601C383.936 83.4481 383.936 82.7761 383.936 81.9441C383.936 81.0481 383.936 80.3441 383.936 79.8321C384.192 74.9041 385.312 70.6801 387.296 67.1601C389.28 63.5761 392.064 60.8561 395.648 59.0001C399.232 57.0801 403.424 56.1201 408.224 56.1201C413.6 56.1201 418.08 57.2401 421.664 59.4801C425.312 61.6561 428.032 64.6641 429.824 68.5041C431.68 72.2801 432.608 76.6321 432.608 81.5601V83.7681C432.608 84.4081 432.352 84.9521 431.84 85.4001C431.392 85.8481 430.848 86.0721 430.208 86.0721H398.816C398.816 86.1361 398.816 86.2641 398.816 86.4561C398.816 86.5841 398.816 86.7121 398.816 86.8401C398.88 88.8881 399.264 90.7761 399.968 92.5041C400.736 94.1681 401.792 95.5121 403.136 96.5361C404.544 97.5601 406.208 98.0721 408.128 98.0721C409.728 98.0721 411.04 97.8481 412.064 97.4001C413.088 96.9521 413.92 96.4081 414.56 95.7681C415.264 95.1281 415.776 94.5841 416.096 94.1361C416.672 93.4961 417.12 93.1121 417.44 92.9841C417.824 92.7921 418.4 92.6961 419.168 92.6961H429.152C429.792 92.6961 430.304 92.8881 430.688 93.2721C431.136 93.5921 431.328 94.0721 431.264 94.7121C431.2 95.7361 430.656 97.0161 429.632 98.5521C428.672 100.024 427.232 101.496 425.312 102.968C423.392 104.376 420.992 105.56 418.112 106.52C415.296 107.48 412.032 107.96 408.32 107.96ZM398.816 77.3361H417.632V77.1441C417.632 74.8401 417.248 72.8561 416.48 71.1921C415.776 69.4641 414.72 68.1201 413.312 67.1601C411.904 66.2001 410.208 65.7201 408.224 65.7201C406.24 65.7201 404.544 66.2001 403.136 67.1601C401.728 68.1201 400.64 69.4641 399.872 71.1921C399.168 72.8561 398.816 74.8401 398.816 77.1441V77.3361Z" fill="#CCFFFB"/>
<path d="M328.252 107C327.548 107 327.004 106.776 326.62 106.328C326.236 105.88 326.108 105.304 326.236 104.6L327.676 98.1681C327.804 97.5921 327.996 97.1121 328.252 96.7281C328.508 96.2801 328.828 95.8961 329.212 95.5761L358.492 68.2161H337.18C336.54 68.2161 336.028 67.9921 335.644 67.5441C335.324 67.0961 335.228 66.5521 335.356 65.9121L336.7 59.4801C336.828 58.7761 337.148 58.2001 337.66 57.7521C338.236 57.3041 338.876 57.0801 339.58 57.0801H377.02C377.724 57.0801 378.236 57.3041 378.556 57.7521C378.876 58.2001 378.972 58.7761 378.844 59.4801L377.5 66.3921C377.308 67.2881 376.796 68.0881 375.964 68.7921L347.26 95.8641H370.78C371.484 95.8641 371.996 96.0881 372.316 96.5361C372.7 96.9841 372.796 97.5281 372.604 98.1681L371.26 104.6C371.132 105.304 370.78 105.88 370.204 106.328C369.692 106.776 369.116 107 368.476 107H328.252Z" fill="#CCFFFB"/>
<path d="M293.205 107.96C289.813 107.96 286.773 107.32 284.085 106.04C281.397 104.696 279.253 102.904 277.653 100.664C276.053 98.4241 275.253 95.9281 275.253 93.1761C275.253 88.6321 277.077 85.0481 280.725 82.4241C284.437 79.8001 289.301 78.0081 295.317 77.0481L307.893 75.2241V73.4961C307.893 71.0001 307.317 69.0801 306.165 67.7361C305.013 66.3921 302.997 65.7201 300.117 65.7201C298.005 65.7201 296.309 66.1361 295.029 66.9681C293.749 67.8001 292.757 68.8881 292.053 70.2321C291.541 71.0641 290.805 71.4801 289.845 71.4801H280.725C280.021 71.4801 279.477 71.2881 279.093 70.9041C278.709 70.4561 278.549 69.9441 278.613 69.3681C278.613 68.2801 279.029 67.0001 279.861 65.5281C280.693 64.0561 281.973 62.6161 283.701 61.2081C285.429 59.7361 287.637 58.5201 290.325 57.5601C293.013 56.6001 296.309 56.1201 300.213 56.1201C304.245 56.1201 307.701 56.6001 310.581 57.5601C313.461 58.5201 315.765 59.8641 317.493 61.5921C319.221 63.3201 320.501 65.3361 321.333 67.6401C322.165 69.8801 322.581 72.3121 322.581 74.9361V104.6C322.581 105.304 322.357 105.88 321.909 106.328C321.461 106.776 320.885 107 320.181 107H310.773C310.133 107 309.589 106.776 309.141 106.328C308.693 105.88 308.469 105.304 308.469 104.6V101.048C307.637 102.264 306.517 103.416 305.109 104.504C303.701 105.528 302.005 106.36 300.021 107C298.101 107.64 295.829 107.96 293.205 107.96ZM297.045 97.9761C299.157 97.9761 301.045 97.5281 302.709 96.6321C304.373 95.7361 305.685 94.3601 306.645 92.5041C307.605 90.6481 308.085 88.3121 308.085 85.4961V83.8641L299.157 85.3041C295.701 85.8801 293.173 86.7441 291.573 87.8961C289.973 89.0481 289.173 90.4561 289.173 92.1201C289.173 93.3361 289.525 94.3921 290.229 95.2881C290.997 96.1841 291.989 96.8561 293.205 97.3041C294.421 97.7521 295.701 97.9761 297.045 97.9761Z" fill="#CCFFFB"/>
<path d="M237.326 107.96C234.126 107.96 231.278 107.448 228.782 106.424C226.286 105.336 224.174 103.8 222.446 101.816C220.718 99.7681 219.406 97.3681 218.51 94.6161C217.614 91.8001 217.07 88.6961 216.878 85.3041C216.814 84.0881 216.782 83.0001 216.782 82.0401C216.782 81.0161 216.814 79.9281 216.878 78.7761C217.006 75.4481 217.518 72.4081 218.414 69.6561C219.374 66.9041 220.686 64.5361 222.35 62.5521C224.078 60.5041 226.19 58.9361 228.686 57.8481C231.246 56.6961 234.126 56.1201 237.326 56.1201C240.654 56.1201 243.502 56.6961 245.87 57.8481C248.238 58.9361 250.19 60.3761 251.726 62.1681V41.2401C251.726 40.5361 251.95 39.9601 252.398 39.5121C252.846 39.0641 253.422 38.8401 254.126 38.8401H264.014C264.654 38.8401 265.198 39.0641 265.646 39.5121C266.094 39.9601 266.318 40.5361 266.318 41.2401V104.6C266.318 105.304 266.094 105.88 265.646 106.328C265.198 106.776 264.654 107 264.014 107H254.798C254.158 107 253.614 106.776 253.166 106.328C252.718 105.88 252.494 105.304 252.494 104.6V101.336C250.894 103.256 248.878 104.856 246.446 106.136C244.014 107.352 240.974 107.96 237.326 107.96ZM241.742 96.4401C244.11 96.4401 245.998 95.8961 247.406 94.8081C248.878 93.7201 249.934 92.3441 250.574 90.6801C251.278 89.0161 251.662 87.2241 251.726 85.3041C251.854 84.0881 251.918 82.8721 251.918 81.6561C251.918 80.4401 251.854 79.2561 251.726 78.1041C251.662 76.3121 251.278 74.6481 250.574 73.1121C249.87 71.5121 248.782 70.2001 247.31 69.1761C245.902 68.1521 244.046 67.6401 241.742 67.6401C239.31 67.6401 237.39 68.1841 235.982 69.2721C234.574 70.2961 233.55 71.6721 232.91 73.4001C232.334 75.1281 231.982 77.0161 231.854 79.0641C231.662 81.0481 231.662 83.0321 231.854 85.0161C231.982 87.0641 232.334 88.9521 232.91 90.6801C233.55 92.4081 234.574 93.8161 235.982 94.9041C237.39 95.9281 239.31 96.4401 241.742 96.4401Z" fill="#CCFFFB"/>
<path d="M194.758 107C194.118 107 193.574 106.776 193.126 106.328C192.678 105.88 192.454 105.304 192.454 104.6V59.48C192.454 58.776 192.678 58.2 193.126 57.752C193.574 57.304 194.118 57.08 194.758 57.08H204.358C205.062 57.08 205.638 57.304 206.086 57.752C206.534 58.2 206.758 58.776 206.758 59.48V104.6C206.758 105.304 206.534 105.88 206.086 106.328C205.638 106.776 205.062 107 204.358 107H194.758ZM194.47 49.4C193.83 49.4 193.286 49.176 192.838 48.728C192.39 48.28 192.166 47.704 192.166 47V39.32C192.166 38.616 192.39 38.04 192.838 37.592C193.286 37.08 193.83 36.824 194.47 36.824H204.55C205.254 36.824 205.83 37.08 206.278 37.592C206.79 38.04 207.046 38.616 207.046 39.32V47C207.046 47.704 206.79 48.28 206.278 48.728C205.83 49.176 205.254 49.4 204.55 49.4H194.47Z" fill="#CCFFFB"/>
<path d="M168.417 107C167.713 107 167.137 106.776 166.689 106.328C166.241 105.88 166.017 105.304 166.017 104.6V41.2401C166.017 40.5361 166.241 39.9601 166.689 39.5121C167.137 39.0641 167.713 38.8401 168.417 38.8401H178.017C178.657 38.8401 179.201 39.0641 179.649 39.5121C180.097 39.9601 180.321 40.5361 180.321 41.2401V104.6C180.321 105.304 180.097 105.88 179.649 106.328C179.201 106.776 178.657 107 178.017 107H168.417Z" fill="#CCFFFB"/>
<path d="M131.208 107.96C125.896 107.96 121.448 107.096 117.864 105.368C114.28 103.576 111.528 101.048 109.608 97.7841C107.752 94.5201 106.728 90.7121 106.536 86.3601C106.472 85.0801 106.44 83.6401 106.44 82.0401C106.44 80.3761 106.472 78.9361 106.536 77.7201C106.728 73.3041 107.816 69.4961 109.8 66.2961C111.784 63.0321 114.568 60.5361 118.152 58.8081C121.736 57.0161 126.088 56.1201 131.208 56.1201C136.264 56.1201 140.584 57.0161 144.168 58.8081C147.752 60.5361 150.536 63.0321 152.52 66.2961C154.504 69.4961 155.592 73.3041 155.784 77.7201C155.912 78.9361 155.976 80.3761 155.976 82.0401C155.976 83.6401 155.912 85.0801 155.784 86.3601C155.592 90.7121 154.536 94.5201 152.616 97.7841C150.76 101.048 148.04 103.576 144.456 105.368C140.872 107.096 136.456 107.96 131.208 107.96ZM131.208 97.4001C134.344 97.4001 136.712 96.4401 138.312 94.5201C139.912 92.5361 140.776 89.6561 140.904 85.8801C140.968 84.9201 141 83.6401 141 82.0401C141 80.4401 140.968 79.1601 140.904 78.2001C140.776 74.4881 139.912 71.6401 138.312 69.6561C136.712 67.6721 134.344 66.6801 131.208 66.6801C128.072 66.6801 125.672 67.6721 124.008 69.6561C122.408 71.6401 121.544 74.4881 121.416 78.2001C121.352 79.1601 121.32 80.4401 121.32 82.0401C121.32 83.6401 121.352 84.9201 121.416 85.8801C121.544 89.6561 122.408 92.5361 124.008 94.5201C125.672 96.4401 128.072 97.4001 131.208 97.4001Z" fill="#CCFFFB"/>
<path d="M49.448 107C48.744 107 48.168 106.776 47.72 106.328C47.272 105.88 47.048 105.304 47.048 104.6V41.2401C47.048 40.5361 47.272 39.9601 47.72 39.5121C48.168 39.0641 48.744 38.8401 49.448 38.8401H59.816C60.456 38.8401 61 39.0641 61.448 39.5121C61.896 39.9601 62.12 40.5361 62.12 41.2401V62.8401C63.848 60.7921 65.96 59.1601 68.456 57.9441C70.952 56.7281 73.96 56.1201 77.48 56.1201C81.256 56.1201 84.584 56.9841 87.464 58.7121C90.408 60.3761 92.712 62.8401 94.376 66.1041C96.04 69.3041 96.872 73.2081 96.872 77.8161V104.6C96.872 105.304 96.648 105.88 96.2 106.328C95.752 106.776 95.176 107 94.472 107H84.008C83.368 107 82.824 106.776 82.376 106.328C81.928 105.88 81.704 105.304 81.704 104.6V78.3921C81.704 75.0001 80.872 72.3761 79.208 70.5201C77.544 68.6001 75.176 67.6401 72.104 67.6401C69.096 67.6401 66.664 68.6001 64.808 70.5201C63.016 72.3761 62.12 75.0001 62.12 78.3921V104.6C62.12 105.304 61.896 105.88 61.448 106.328C61 106.776 60.456 107 59.816 107H49.448Z" fill="#CCFFFB"/>
</g>
<defs>
<clipPath id="clip0_332_36">
<rect width="478" height="159" fill="white"/>
</clipPath>
</defs>
</svg>
