<svg width="160" height="159" viewBox="0 0 160 159" fill="none" xmlns="http://www.w3.org/2000/svg">
<g clip-path="url(#clip0_330_19)">
<path d="M0 0H160V159H0V0Z" fill="#FF8052"/>
<path d="M43.0639 107C42.3599 107 41.7839 106.776 41.3359 106.328C40.8879 105.88 40.6639 105.304 40.6639 104.6V41.2401C40.6639 40.5361 40.8879 39.9601 41.3359 39.5121C41.7839 39.0641 42.3599 38.8401 43.0639 38.8401H55.3519C56.0559 38.8401 56.6319 39.0641 57.0799 39.5121C57.5279 39.9601 57.7519 40.5361 57.7519 41.2401V62.6481C59.4799 60.6641 61.5919 59.0961 64.0879 57.9441C66.6479 56.7281 69.5919 56.1201 72.9199 56.1201C76.6319 56.1201 79.9279 56.9521 82.8079 58.6161C85.7519 60.2801 88.0559 62.7441 89.7199 66.0081C91.3839 69.2081 92.2159 73.1441 92.2159 77.8161V104.6C92.2159 105.304 91.9919 105.88 91.5439 106.328C91.0959 106.776 90.5199 107 89.8159 107H77.4319C76.7919 107 76.2159 106.776 75.7039 106.328C75.2559 105.88 75.0319 105.304 75.0319 104.6V78.3921C75.0319 75.3841 74.2959 73.0801 72.8239 71.4801C71.4159 69.8161 69.3039 68.9841 66.4879 68.9841C63.8639 68.9841 61.7519 69.8161 60.1519 71.4801C58.5519 73.0801 57.7519 75.3841 57.7519 78.3921V104.6C57.7519 105.304 57.5279 105.88 57.0799 106.328C56.6319 106.776 56.0559 107 55.3519 107H43.0639Z" fill="#CCFFFB"/>
<path d="M79.0479 107C78.4079 107 77.8319 106.776 77.3199 106.328C76.8719 105.88 76.6479 105.304 76.6479 104.6V97.1121C76.6479 96.4081 76.7759 95.8001 77.0319 95.2881C77.3519 94.7761 77.7359 94.2961 78.1839 93.8481L100.648 69.4641H79.9119C79.2079 69.4641 78.5999 69.2401 78.0879 68.7921C77.6399 68.3441 77.4159 67.7681 77.4159 67.0641V59.4801C77.4159 58.7761 77.6399 58.2001 78.0879 57.7521C78.5999 57.3041 79.2079 57.0801 79.9119 57.0801H118.504C119.144 57.0801 119.688 57.3041 120.136 57.7521C120.648 58.2001 120.904 58.7761 120.904 59.4801V67.6401C120.904 68.2161 120.776 68.7281 120.52 69.1761C120.264 69.6241 119.944 70.0721 119.56 70.5201L97.6719 94.6161H120.424C121.128 94.6161 121.704 94.8401 122.152 95.2881C122.6 95.7361 122.824 96.3121 122.824 97.0161V104.6C122.824 105.304 122.6 105.88 122.152 106.328C121.704 106.776 121.128 107 120.424 107H79.0479Z" fill="white"/>
</g>
<defs>
<clipPath id="clip0_330_19">
<rect width="160" height="159" fill="white"/>
</clipPath>
</defs>
</svg>
