<svg width="1200" height="600" viewBox="0 0 1200 600" fill="none" xmlns="http://www.w3.org/2000/svg">
<g clip-path="url(#clip0_336_21)">
<path d="M1200 0H0V600H1200V0Z" fill="#EFEFEF"/>
<path d="M520.382 220.5H680.382V379.5H520.382V220.5Z" fill="#0074A7"/>
<path d="M563.83 327.5C563.126 327.5 562.55 327.276 562.102 326.828C561.654 326.38 561.43 325.804 561.43 325.1V261.74C561.43 261.036 561.654 260.46 562.102 260.012C562.55 259.564 563.126 259.34 563.83 259.34H574.198C574.838 259.34 575.382 259.564 575.83 260.012C576.278 260.46 576.502 261.036 576.502 261.74V283.34C578.23 281.292 580.342 279.66 582.838 278.444C585.334 277.228 588.342 276.62 591.862 276.62C595.638 276.62 598.966 277.484 601.846 279.212C604.79 280.876 607.094 283.34 608.758 286.604C610.422 289.804 611.254 293.708 611.254 298.316V325.1C611.254 325.804 611.03 326.38 610.582 326.828C610.134 327.276 609.558 327.5 608.854 327.5H598.39C597.75 327.5 597.206 327.276 596.758 326.828C596.31 326.38 596.086 325.804 596.086 325.1V298.892C596.086 295.5 595.254 292.876 593.59 291.02C591.926 289.1 589.558 288.14 586.486 288.14C583.478 288.14 581.046 289.1 579.19 291.02C577.398 292.876 576.502 295.5 576.502 298.892V325.1C576.502 325.804 576.278 326.38 575.83 326.828C575.382 327.276 574.838 327.5 574.198 327.5H563.83Z" fill="#CCFFFB"/>
<path d="M593.478 327.5C592.774 327.5 592.23 327.276 591.846 326.828C591.462 326.38 591.334 325.804 591.462 325.1L592.902 318.668C593.03 318.092 593.222 317.612 593.478 317.228C593.734 316.78 594.054 316.396 594.438 316.076L623.718 288.716H602.406C601.766 288.716 601.254 288.492 600.87 288.044C600.55 287.596 600.454 287.052 600.582 286.412L601.926 279.98C602.054 279.276 602.374 278.7 602.886 278.252C603.462 277.804 604.102 277.58 604.806 277.58H642.246C642.95 277.58 643.462 277.804 643.782 278.252C644.102 278.7 644.198 279.276 644.07 279.98L642.726 286.892C642.534 287.788 642.022 288.588 641.19 289.292L612.486 316.364H636.006C636.71 316.364 637.222 316.588 637.542 317.036C637.926 317.484 638.022 318.028 637.83 318.668L636.486 325.1C636.358 325.804 636.006 326.38 635.43 326.828C634.918 327.276 634.342 327.5 633.702 327.5H593.478Z" fill="white"/>
</g>
<defs>
<clipPath id="clip0_336_21">
<rect width="1200" height="600" fill="white"/>
</clipPath>
</defs>
</svg>
