<svg width="1200" height="600" viewBox="0 0 1200 600" fill="none" xmlns="http://www.w3.org/2000/svg">
<g clip-path="url(#clip0_336_21)">
<path d="M1200 0H0V600H1200V0Z" fill="#EFEFEF"/>
<path d="M520.382 220.5H680.382V379.5H520.382V220.5Z" fill="#0074A7"/>
<path d="M563.446 327.5C562.742 327.5 562.166 327.276 561.718 326.828C561.27 326.38 561.046 325.804 561.046 325.1V261.74C561.046 261.036 561.27 260.46 561.718 260.012C562.166 259.564 562.742 259.34 563.446 259.34H575.734C576.438 259.34 577.014 259.564 577.462 260.012C577.91 260.46 578.134 261.036 578.134 261.74V283.148C579.862 281.164 581.974 279.596 584.47 278.444C587.03 277.228 589.974 276.62 593.302 276.62C597.014 276.62 600.31 277.452 603.19 279.116C606.134 280.78 608.438 283.244 610.102 286.508C611.766 289.708 612.598 293.644 612.598 298.316V325.1C612.598 325.804 612.374 326.38 611.926 326.828C611.478 327.276 610.902 327.5 610.198 327.5H597.814C597.174 327.5 596.598 327.276 596.086 326.828C595.638 326.38 595.414 325.804 595.414 325.1V298.892C595.414 295.884 594.678 293.58 593.206 291.98C591.798 290.316 589.686 289.484 586.87 289.484C584.246 289.484 582.134 290.316 580.534 291.98C578.934 293.58 578.134 295.884 578.134 298.892V325.1C578.134 325.804 577.91 326.38 577.462 326.828C577.014 327.276 576.438 327.5 575.734 327.5H563.446Z" fill="#CCFFFB"/>
<path d="M599.43 327.5C598.79 327.5 598.214 327.276 597.702 326.828C597.254 326.38 597.03 325.804 597.03 325.1V317.612C597.03 316.908 597.158 316.3 597.414 315.788C597.734 315.276 598.118 314.796 598.566 314.348L621.03 289.964H600.294C599.59 289.964 598.982 289.74 598.47 289.292C598.022 288.844 597.798 288.268 597.798 287.564V279.98C597.798 279.276 598.022 278.7 598.47 278.252C598.982 277.804 599.59 277.58 600.294 277.58H638.886C639.526 277.58 640.07 277.804 640.518 278.252C641.03 278.7 641.286 279.276 641.286 279.98V288.14C641.286 288.716 641.158 289.228 640.902 289.676C640.646 290.124 640.326 290.572 639.942 291.02L618.054 315.116H640.806C641.51 315.116 642.086 315.34 642.534 315.788C642.982 316.236 643.206 316.812 643.206 317.516V325.1C643.206 325.804 642.982 326.38 642.534 326.828C642.086 327.276 641.51 327.5 640.806 327.5H599.43Z" fill="white"/>
</g>
<defs>
<clipPath id="clip0_336_21">
<rect width="1200" height="600" fill="white"/>
</clipPath>
</defs>
</svg>
